#!OML:ASF F:\VICON\USERDATA\INSTALL\rory3\rory3.ASF
:FULLY-SPECIFIED
:DEGREES
415
root 2.90809 16.761 -0.1614 14.9331 5.50661 10.8378
lowerback -6.30426 1.23012 0.143362
upperback -2.2256 1.77867 -6.93524
thorax 1.46076 0.892569 -7.19388
lowerneck -2.46333 14.5777 4.97918
upperneck 47.0577 24.3968 -2.16714
head 19.8167 10.5923 2.18015
rclavicle 5.86415e-015 -5.4467e-014
rhumerus -36.5348 4.02497 -93.2508
rradius 42.4241
rwrist -38.3681
rhand -8.1333 -50.2668
rfingers 7.12502
rthumb 17.7806 -79.4739
lclavicle 5.86415e-015 -5.4467e-014
lhumerus -28.1564 -19.2114 81.9875
lradius 41.0759
lwrist 74.0304
lhand -38.5128 -13.3548
lfingers 7.12502
lthumb -11.5338 16.3079
rfemur -50.3694 24.0956 -5.87992
rtibia 73.6142
rfoot 3.18129 9.59384
rtoes -42.837
lfemur -32.0716 -6.67593 -35.94
ltibia 38.0525
lfoot -16.4282 10.1293
ltoes 4.88211
416
root 2.90951 16.7616 -0.164723 14.9934 5.61139 10.8349
lowerback -6.43825 1.19629 0.220719
upperback -2.15955 1.73695 -6.91601
thorax 1.60045 0.874963 -7.21921
lowerneck -2.54302 14.5934 4.89931
upperneck 47.0262 24.4376 -2.19129
head 19.8088 10.5901 2.19331
rclavicle 1.67476e-014 -4.73108e-014
rhumerus -36.4 4.08519 -93.2039
rradius 42.3783
rwrist -38.3371
rhand -8.04216 -50.1319
rfingers 7.12502
rthumb 17.8683 -79.331
lclavicle 1.67476e-014 -4.73108e-014
lhumerus -28.0529 -19.1353 81.9819
lradius 41.0798
lwrist 74.0599
lhand -38.4306 -13.3984
lfingers 7.12502
lthumb -11.4546 16.2686
rfemur -50.3499 23.9662 -5.8592
rtibia 73.6039
rfoot 3.0511 9.65088
rtoes -43.0426
lfemur -32.1053 -6.74542 -35.9254
ltibia 38.0338
lfoot -16.4206 10.0786
ltoes 4.92919
417
root 2.90907 16.7628 -0.167598 15.0639 5.64989 10.8596
lowerback -6.49905 1.18654 0.245541
upperback -2.15381 1.72517 -6.92431
thorax 1.63979 0.869862 -7.2428
lowerneck -2.62349 14.5987 4.80423
upperneck 47.0035 24.4334 -2.14568
head 19.7813 10.5769 2.22981
rclavicle -6.21202e-015 7.15625e-015
rhumerus -36.3479 4.11449 -93.1884
rradius 42.3055
rwrist -38.3321
rhand -7.96806 -50.3176
rfingers 7.12502
rthumb 17.9396 -79.5102
lclavicle -6.21202e-015 7.15625e-015
lhumerus -28.0068 -19.0577 81.9643
lradius 41.061
lwrist 74.0607
lhand -38.2785 -13.3869
lfingers 7.12502
lthumb -11.3079 16.2882
rfemur -50.4164 23.8437 -5.89469
rtibia 73.5991
rfoot 3.06628 9.7152
rtoes -42.9148
lfemur -32.1742 -6.80287 -35.9346
ltibia 38.0184
lfoot -16.3747 10.069
ltoes 4.88213
418
root 2.90812 16.7662 -0.165508 15.0522 5.63339 10.9458
lowerback -6.49402 1.20361 0.180848
upperback -2.1366 1.75415 -6.96545
thorax 1.65798 0.88521 -7.24719
lowerneck -2.63725 14.5819 4.76656
upperneck 46.9235 24.3993 -2.15963
head 19.7216 10.5615 2.21651
rclavicle 4.30866e-014 -9.14409e-015
rhumerus -36.3864 4.05896 -93.1874
rradius 42.3607
rwrist -38.3351
rhand -8.11404 -50.5956
rfingers 7.12502
rthumb 17.7991 -79.801
lclavicle 4.30866e-014 -9.14409e-015
lhumerus -28.0014 -19.053 81.9623
lradius 41.0587
lwrist 73.9945
lhand -38.4065 -13.0675
lfingers 7.12502
lthumb -11.4313 16.6009
rfemur -50.3696 23.7685 -5.96169
rtibia 73.5842
rfoot 3.06708 9.729
rtoes -42.8483
lfemur -32.1637 -6.83267 -36.0077
ltibia 38.0087
lfoot -16.4162 9.98035
ltoes 5.62873
419
root 2.90736 16.7685 -0.163445 15.069 5.57947 10.9526
lowerback -6.5885 1.25201 0.190914
upperback -2.10128 1.82488 -6.99228
thorax 1.75765 0.923322 -7.27447
lowerneck -2.65437 14.5668 4.84066
upperneck 46.949 24.3733 -2.16382
head 19.758 10.559 2.2063
rclavicle -2.33572e-014 1.94809e-014
rhumerus -36.3832 3.94311 -93.1555
rradius 42.4689
rwrist -38.276
rhand -8.05192 -50.8594
rfingers 7.12502
rthumb 17.8589 -80.0594
lclavicle -2.33572e-014 1.94809e-014
lhumerus -27.9502 -19.1836 81.9753
lradius 41.106
lwrist 74.041
lhand -38.8392 -12.6933
lfingers 7.12502
lthumb -11.8486 16.9515
rfemur -50.3985 23.767 -5.99689
rtibia 73.5827
rfoot 3.09021 9.65704
rtoes -42.6542
lfemur -32.1916 -6.84156 -35.9949
ltibia 37.9887
lfoot -16.5061 9.87298
ltoes 6.73113
420
root 2.90586 16.7632 -0.165599 15.1712 5.55006 11.0131
lowerback -6.73546 1.2836 0.16475
upperback -2.09112 1.87653 -7.03699
thorax 1.85756 0.951413 -7.30102
lowerneck -2.69141 14.5763 5.03577
upperneck 47.1086 24.3977 -2.15323
head 19.9201 10.5849 2.21294
rclavicle 3.11595e-014 -6.40087e-014
rhumerus -36.302 3.87564 -93.1401
rradius 42.4313
rwrist -38.3084
rhand -8.05111 -50.9793
rfingers 7.12502
rthumb 17.8597 -80.1792
lclavicle 3.11595e-014 -6.40087e-014
lhumerus -27.8886 -19.3495 81.9756
lradius 41.1029
lwrist 74.1811
lhand -38.7453 -12.8366
lfingers 7.12502
lthumb -11.7581 16.8134
rfemur -50.5747 23.7104 -6.1378
rtibia 73.6341
rfoot 3.17446 9.65412
rtoes -42.3451
lfemur -32.2503 -6.86237 -36.0659
ltibia 37.9486
lfoot -16.4678 9.98323
ltoes 6.083
421
root 2.90466 16.7591 -0.167026 15.2178 5.57481 11.1752
lowerback -6.81989 1.26954 0.0496616
upperback -2.03564 1.87388 -7.09883
thorax 1.96054 0.952763 -7.29989
lowerneck -2.85099 14.5992 5.09455
upperneck 47.2371 24.4378 -2.10228
head 20.0554 10.5955 2.26671
rclavicle -7.60351e-015 -6.75868e-015
rhumerus -36.1706 3.87029 -93.1371
rradius 42.3895
rwrist -38.4488
rhand -8.62929 -50.7973
rfingers 7.12502
rthumb 17.3033 -80.047
lclavicle -7.60351e-015 -6.75868e-015
lhumerus -27.7631 -19.374 81.9257
lradius 41.0686
lwrist 74.2366
lhand -38.2714 -13.2141
lfingers 7.12502
lthumb -11.301 16.4614
rfemur -50.643 23.6219 -6.3314
rtibia 73.6897
rfoot 3.32783 9.6773
rtoes -41.8825
lfemur -32.2151 -6.90646 -36.2512
ltibia 37.9058
lfoot -16.4043 10.0944
ltoes 5.22433
422
root 2.90456 16.7626 -0.16331 15.2431 5.58634 11.2242
lowerback -6.98484 1.27282 0.0212091
upperback -1.95743 1.89232 -7.12011
thorax 2.1362 0.966269 -7.30217
lowerneck -2.99636 14.6115 5.05634
upperneck 47.3188 24.4376 -2.00468
head 20.1175 10.5865 2.33721
rclavicle 9.29318e-015 1.43125e-014
rhumerus -36.0671 3.86976 -93.1303
rradius 42.3884
rwrist -38.5439
rhand -9.43242 -50.0928
rfingers 7.12502
rthumb 16.5302 -79.4087
lclavicle 9.29318e-015 1.43125e-014
lhumerus -27.5566 -19.3574 81.8813
lradius 40.9785
lwrist 74.165
lhand -38.2628 -13.2677
lfingers 7.12502
lthumb -11.2927 16.4083
rfemur -50.6612 23.6114 -6.40799
rtibia 73.6995
rfoot 3.52559 9.62963
rtoes -41.0832
lfemur -32.1843 -6.92285 -36.3021
ltibia 37.8738
lfoot -16.41 10.0761
ltoes 5.28215
423
root 2.90239 16.7642 -0.160947 15.2644 5.58225 11.1427
lowerback -7.10874 1.28969 0.0870305
upperback -1.94718 1.91533 -7.10349
thorax 2.22051 0.979598 -7.31861
lowerneck -2.89215 14.6102 5.10871
upperneck 47.3041 24.4031 -1.97526
head 20.0788 10.5926 2.32322
rclavicle 6.65929e-015 -4.37326e-015
rhumerus -36.0727 3.92396 -93.1763
rradius 42.3317
rwrist -38.637
rhand -9.82387 -49.1149
rfingers 7.12502
rthumb 16.1533 -78.4618
lclavicle 6.65929e-015 -4.37326e-015
lhumerus -27.5341 -19.3609 81.8795
lradius 40.937
lwrist 74.1425
lhand -38.6479 -13.2663
lfingers 7.12502
lthumb -11.6642 16.389
rfemur -50.704 23.6365 -6.33967
rtibia 73.7056
rfoot 3.54577 9.63419
rtoes -40.9286
lfemur -32.2227 -6.91861 -36.2036
ltibia 37.8769
lfoot -16.3564 10.1033
ltoes 4.97674
424
root 2.89814 16.7631 -0.162418 15.2153 5.57593 11.0411
lowerback -7.04415 1.30671 0.161502
upperback -1.98938 1.92685 -7.07296
thorax 2.14331 0.983539 -7.32873
lowerneck -2.66529 14.5946 5.2082
upperneck 47.2391 24.3697 -2.03376
head 20.0062 10.6071 2.24788
rclavicle -3.27995e-014 8.15017e-014
rhumerus -36.224 3.9242 -93.1927
rradius 42.3865
rwrist -38.6913
rhand -10.0445 -48.3903
rfingers 7.12502
rthumb 15.9408 -77.7543
lclavicle -3.27995e-014 8.15017e-014
lhumerus -27.6489 -19.3814 81.9095
lradius 40.9183
lwrist 74.3333
lhand -38.5606 -13.7364
lfingers 7.12502
lthumb -11.5799 15.9237
rfemur -50.6872 23.6907 -6.19585
rtibia 73.713
rfoot 3.33101 9.75663
rtoes -41.8488
lfemur -32.2485 -6.88119 -36.0819
ltibia 37.9385
lfoot -16.3246 10.1293
ltoes 4.64035
425
root 2.89126 16.7605 -0.164721 15.2017 5.57509 10.9978
lowerback -7.02536 1.3114 0.110754
upperback -1.99351 1.93424 -7.02618
thorax 2.12624 0.986422 -7.24803
lowerneck -2.61126 14.6096 5.24329
upperneck 47.2242 24.4004 -2.06349
head 19.9993 10.6259 2.22983
rclavicle -1.1281e-014 5.24792e-014
rhumerus -36.238 3.87962 -93.1165
rradius 42.3948
rwrist -38.7251
rhand -10.3247 -48.0341
rfingers 7.12502
rthumb 15.6709 -77.4195
lclavicle -1.1281e-014 5.24792e-014
lhumerus -27.6205 -19.4401 81.9581
lradius 40.8269
lwrist 74.4456
lhand -38.2419 -13.9923
lfingers 7.12502
lthumb -11.2726 15.6848
rfemur -50.7216 23.7329 -6.11913
rtibia 73.7328
rfoot 3.17959 9.78283
rtoes -42.4996
lfemur -32.3052 -6.84285 -36.0067
ltibia 38.03
lfoot -16.379 10.1007
ltoes 4.71848
426
root 2.8838 16.757 -0.168467 15.2276 5.53488 10.975
lowerback -6.94085 1.31933 0.0260716
upperback -2.04795 1.94334 -7.00072
thorax 2.02001 0.987921 -7.17182
lowerneck -2.58896 14.6162 5.23541
upperneck 47.244 24.3851 -1.99813
head 19.9864 10.6279 2.25455
rclavicle -7.25564e-015 6.59965e-014
rhumerus -36.2406 3.80779 -93.0673
rradius 42.3225
rwrist -38.7656
rhand -10.3346 -48.0987
rfingers 7.12502
rthumb 15.6614 -77.4848
lclavicle -7.25564e-015 6.59965e-014
lhumerus -27.714 -19.4789 82.0066
lradius 40.8913
lwrist 74.2379
lhand -38.4496 -13.6772
lfingers 7.12502
lthumb -11.4729 15.9888
rfemur -50.8544 23.7846 -6.12636
rtibia 73.7684
rfoot 3.28645 9.67316
rtoes -42.0533
lfemur -32.3918 -6.79991 -35.956
ltibia 38.1133
lfoot -16.4428 10.0849
ltoes 4.89953
427
root 2.88322 16.7561 -0.167841 15.203 5.43477 10.896
lowerback -6.83702 1.37999 0.10767
upperback -2.14209 2.00996 -7.01526
thorax 1.87579 1.01791 -7.23098
lowerneck -2.38698 14.5402 5.29399
upperneck 47.2135 24.234 -1.98383
head 19.9076 10.5957 2.19805
rclavicle 6.60959e-015 -4.05521e-014
rhumerus -36.429 3.64579 -93.0796
rradius 42.3409
rwrist -38.706
rhand -10.1673 -48.2443
rfingers 7.12502
rthumb 15.8225 -77.6177
lclavicle 6.60959e-015 -4.05521e-014
lhumerus -27.988 -19.5081 82.0389
lradius 41.0936
lwrist 73.9937
lhand -38.7687 -13.4344
lfingers 7.12502
lthumb -11.7806 16.2143
rfemur -50.9056 23.8911 -6.09525
rtibia 73.7688
rfoot 3.25692 9.78288
rtoes -42.2053
lfemur -32.3999 -6.74251 -35.8862
ltibia 38.1467
lfoot -16.4962 10.1541
ltoes 4.99102
